/* XPM */
static const char *team_logo_xpm[] = {
/* columns rows colors chars-per-pixel */
"184 32 31 1",
"  c black",
". c #111111",
"X c #222222",
"o c gray20",
"O c #444444",
"+ c #555555",
"@ c gray40",
"# c #777777",
"$ c red",
"% c #FF1111",
"& c #FF2222",
"* c #FF3333",
"= c #FF4444",
"- c #FF5555",
"; c #FF6666",
": c #FF7777",
"> c #888888",
", c gray60",
"< c #AAAAAA",
"1 c #BBBBBB",
"2 c #FF8888",
"3 c #FF9999",
"4 c #FFAAAA",
"5 c #FFBBBB",
"6 c gray80",
"7 c #DDDDDD",
"8 c #FFCCCC",
"9 c #FFDDDD",
"0 c #EEEEEE",
"q c #FFEEEE",
"w c gray100",
/* pixels */
"wwwwwwwwwwwwwwwwwwwwwwwwwwwwwwwwwwwwwwwwwwwwwwwwwwwwwqwww984:=&$$$$$%=28qwqwwwwwwwwwwwwwwwwwwwwwwwwwwwwwwwwwwwwwwwwwwwwwwwwwwwwwwwwwwwwwwwwwwwwwwwwwwwwwwwwwwwwwwwwwwwwwwwwwwwwwwwwwwwww",
"wwwwwwwwwwwwwwwwwwwwwwwwwwwwwwwwwwwwwwwwwwwwwwwwwwwwww8;%$$$$$$$$$$$$$$$%5wqwwwwwwwwwwwwwwwwwwwwwwwwwwwwwwwwwwwwwwwwwwwwwwwwwwwwwwwwwwwwwwwwwwwwwwwwwwwwwwwwwwwwwwwwwwwwwwwwwwwwwwwwwwww",
"wwwwwwwwwwwwwwwwwwwwwwwwwwwwwwwwwwwwwwwwwwwwwwwwww94;$$$$$$$$$$$$$$$$$$$$$;wwwwwwwwwwwwwwwwwwww0wwwwwwwwwwwwwwwwwwwwwwwwwwwwwwwwww0wwwwww0wwww0766770www0wwwww0wwwwwwwwwwwwwwwwwwwwwwwww",
"wwwwwwwwwwwwwwwwwwwwwwwwwwwwwwwwwwwwwwwwwwwwwwww8*$$$$$$$$$$$$$$$$$$$$$$$$$&qqwwwwwwwwwwwwwwwwww6@@@@@@@@@@@00wwwwwwwww0#@@@@@@@@7wwwww0ww7#X         +1wwwwwww@@@@@@@@@@@@@@@@@@@@@@@@@",
"wwwwwwwwwwwwwwwwwwwwwwwwwwwwwwwwwwwwwwwwwwqww8;&$$$$$$$$$$$$$$$$$$$$$$$$$$$$:wqwwwwwwwwwwwwwww00            0wwwwwwwww07         0www0w7@.              .>w0w06                         ",
"wwwwwwwwwwwwwwwwwwwwwwwwwwwwwwwwwwwwwwwqwwq8*$$$$$$$$$$$$$$$$$$$$$$$$$$$$$$$$9wwwwwwwwwwwwwww0w@            7wwwwwwwwww6        X0w0w0>                   Ow0w>                         ",
"wwwwwwwwwwwwwwwwwwwwwwwwwwwwwwwwwwwwwwqww:&$$$$$$$$$$$$$$$$$$$$$$$$$$$$$$$$$$*wwwwwwwwwwwwwwww6             6wwwwwwww0w@        +www0o                     1wwO                        +",
"wwwwwwwwwwwwwwwwwwwwwwwwwwwwwwwwwwwqww9:$$$$$$$$$$$$$$$$$$$$$$$$$$$$$$$$$$$$$%9qwwwwwwwwwwww00.             1wwwwwwwwww         1ww0o        .O>>O         +ww                         <",
"wwwwwwwwwwwwwwwwwwwwwwwwwwwwwwwwwwqw9=$$$$$$$$$$$$$$$$$$$$$$$$$$$$$$$$$$$$$$$$8wwwwwwwwwwww0w>              <wwwwwwwww1         www@        o0wwww#        ow1                        .7",
"wwwwwwwwwwwwwwwwwwwwwwwwwwwwwwwwww8;$$$$$$$$$$$$%**=-;;-*&$$$$$$$$$$$$$$$$$$$$3wwwwwwwwwwwww7       #       >wwwwwwwww@        +w06        .wwwwww1        Owwwwwwwww,        +wwwwwwwww",
"wwwwwwwwwwwwwwwwwwwwwwwwwwwwwwqwq=$$$$$$$$$$&28qqqqwwwwwqqq:$$$$$$$$$$$$$$$$$$;wwwwwwwwwww00X      O1       #wwwwwwww0o        1ww@        #w0wwww>        ,wwwwwwwwwO        ,wwwwwwwww",
"wwwwwwwwwwwwwwwwwwwwwwwwwwwwww9;$$$$$$$$*:5qwwwqwwwwwwqqwwww5$$&*=-;:222:;-*$$-wwwwwwwwww0w<       71       @wwwwwww00         70wX        >w0wwww1,,,,,,,,00wwwwwwww         60wwwwwwww",
"wwwwwwwwwwwwwwwwwwwwwwwwwqwwq;$$$$$$$&3qwwwwwwwwwqwwwqqq5:*$$$5wwwwwqwwwqwwwq=-wwwwwwwwwww0       Ow<       +wwwwwwww1        .0ww         .www0wwwwwwwwwwwwwwwwwwww<         wwwwwwwwww",
"wwwwwwwwwwwwwwwwwwwwwwwwwww:%$$$$$*39wwwwwwwwwqwwwq4;=&$$$$$$$=wwwwwwwwwwwwqwq:wwwwwwwww00O       0w<       OwwwwwwwwO        @ww0          .>wwwwwwwwwwwwwwwwwwwwwwo        @wwwwwwwwww",
"wwwwwwwwwwwwwwwwwwwwwwqwq5$$$$$%-9wwqwwwwwqwwqq92&$$$$$$$$$$$$$wwwwwwwwwwwwwqq2wwwwwwwwww1       >ww<       owwwwwww0         6www             @60wwwwwwwwwwwwwwwww0         7wwwwwwwwww",
"wwwwwwwwwwwwwwwwwwwwwqw8*$$$$*4qwwqwwwwwwww9:*%$$$$$$$$$$$$$$$$wwwwwwwwwwwwqw;3wwwwwwww00        00w,       .wwwwww01        .w00wo              .O<ww0wwwwwwwwwww06        .w0wwwwwwwww",
"wwwwwwwwwwwwwwwwwwwww9:$$$$=8wwqwwwwqwwq82&$$$$$$$$$$$$$$$$$$$$wwwwwwwwwwwww:$8wwwwwww0w@       >www,        wwwwwww#        @www01                 .,0wwwwwwwwwwww>        +wwwwwwwwwww",
"wwwwwwwwwwwwwwwwwwqw3$$$$:qwwwwwwwqww9-%$$$$$$$$$$$$$$$$$$$$$$=wwwwwwwwwqwq&$$9qwwwwwww6       Xwwww,        wwwwwwwo        <www0w1                  .70wwwwwwww0wo        ,wwwwwwwwwww",
"wwwwwwwwwwwwwwwwqw8=$$%:qwqwwwwqww82&$$$$$$$$$$$$$$$$$$$$$$$$$3wwwwwwwqww3$$$%qwwwwww00.       ,0www>        wwwwww0         7wwww0w7+.                Xwwwwwwwwww0         7wwwwwwwwwww",
"wwwwwwwwwwwwwwwqw;$$$2qqwqwwwwww8&$$$$$$$$$$$$$$$$$$$$$$$$$$$$8wwwwwwqw9&$$$$&wwwwww0w>       .w0www>        0wwwww,        .wwwwww0w0w<X               >wwwwwwwww,        Xwwwwwwwwwwww",
"wwwwwwwwwwwwqqw4&$%2qwwwwwqqwq2&$$$$$$$$$$$$$$$$$$$$$$$$$$$$$&wwwwwww5=$$$$$$:wwwwwww6        7wwwww#        7wwwwwX        >wwwwwwwww0ww7,+            Xwwwwwwwwwo        >wwwwwwwwwwww",
"wwwwwwwwwwwqwq-$$;wwqwwwwwwq:$$$$$$$$$$$$$$$$$$$$$$$$$$$$$$$$9wqwwq8*$$$$$$$$9wwwww00X        ......         7www07         0wwwwwwwwwwwwwwww@          .wwwwwww00.        7wwwwwwwwwwww",
"wwwwwwwwwwqw3%$;9wwwwwwqwq-$$$$$$$$$$$$$$$$$$$$$$$$$$$$$$$$$-wqww2&$$$$$$$$$%wqwww0w,                        6www01        Xw0wwwwwwwwww0wwwww<         owwwwwwww7        .00wwwwwwwwwww",
"wwwwwwwwqw9-$&8wqwwwwqwq3$$$$$$$$$$$$$$$$$$$$$$$$$$$$$$$$$$$8q8;$$$$$$$$$$$$:wwwwww7                         1wwww#        @ww@        1wwwwww0         ,wwwwww0w#        Owwwwwwwwwwwww",
"wwwwwwwqw4$%5qwqwwwwqw8&$$$$$$$$$$$$$$$$$$$$$$$$$$$$$$$$$$$:;%$$$$$$$$$$$$$$5wwww00o                         1ww0wX        <0w         wwwwww07         0wwwwww0w.        ,wwwwwwwwwwwww",
"wwwwwqwq-$:wwqwwwwwww3$$$$$$$$$$$$$$$$$$$$$$$$$$$$$$$$$$$&$$$$$$$$$$$$$$$$$$qwwwww<                          <www7         0w6        Xw0www0w>        +wwwwwwww7         0wwwwwwwwwwwww",
"wwwwqw8$=qwwwwwwwwqq-$$$$$$$$$$$$$$$$$$$$$$$$$$$$$$$$$$:93$$$$$$$$$$$$$$$$$;wwww00         1<<<<<<<<o        ,www#        oww,         wwww0w1         70wwwwwww>        ow0wwwwwwwwwwww",
"wwqwq:&4wwqwwwwwwww3$$$$$$$$$$$$$$$$$$$$$$$$$$$$$$%=28ww9$$$$$$$$$$$$$$$$$$qwww0w+        ,wwwwwwwwwo        ,ww0X        <ww,         O<66<+         <wwwwwwww0O        ,wwwwwwwwwwwwww",
"wqwq&;wqqwwwwwwwwww$$$$$$$$$$$$$$$$$$$$$$$$$$$$%;8wwwwww&$$$$$$$$$$$$$$$$$=wqwww6         0wwwwwwwwwo        >007.        00w7                       >w0wwwwwww0.        60wwwwwwwwwwwww",
"qw3*5wwwwwwwwwwwwww$$$$$$$$$$$$$$$$$$$$$$$%-259wwwqwwqw-$$$$$$$$$$$$$$$$$$3www00.        <wwwwwwwwwwo        #ww6        X0w0w>                    .1w0wwwwwwww6        .0wwwwwwwwwwwwww",
"q;;wqwwwwwwwwwwwwww8%$$$$$$$$$$$$$$$$%*:5wwwwqwwwwwwqw3$$$$$$$$$$$$$$$$$$$qww0w#        ow0wwwwwwwwwX        #ww@        +www0w#                 .#wwwwwwwwwwww@        Owwwwwwwwwwwwwww",
":8wwwwwwwwwwwwwwwwqwq83:-====-;:35899qwwwwqwwwwwwwwww5*******************2wwww7ooooooooo1wwwwwwwwwww+oooooooo>wwOoooooooo1wwwwww7,O           o#10ww0wwwwwwwwwwOoooooooo1wwwwwwwwwwwwwww"
};
